<svg xmlns="http://www.w3.org/2000/svg" viewBox="0 0 512 512" role="img" aria-label="Journal de bord">
  <defs>
    <!-- Background gradient (amber -> rose), consistent with app branding -->
    <linearGradient id="bg" x1="0" y1="0" x2="1" y2="1">
      <stop offset="0" stop-color="#fbbf24"/>
      <stop offset="1" stop-color="#ef4444"/>
    </linearGradient>

    <!-- Inner shadow for a little depth on the book -->
    <filter id="soft" x="-20%" y="-20%" width="140%" height="140%" color-interpolation-filters="sRGB">
      <feDropShadow dx="0" dy="6" stdDeviation="10" flood-color="#000" flood-opacity=".18"/>
    </filter>

    <!-- Safe-zone guide (commented). Keep primary glyphs inside ~80% diameter circle for maskable icons.
         radius ≈ 0.4 * 512 = 204.8, center (256,256). See: web.dev/maskable-icon -->
    <!-- <circle cx="256" cy="256" r="205" fill="none" stroke="#000" stroke-opacity=".1" /> -->
  </defs>

  <!-- Rounded background (maskable-friendly: full bleed) -->
  <rect x="0" y="0" width="512" height="512" rx="104" fill="url(#bg)"/>

  <!-- LOGBOOK (journal) -->
  <g filter="url(#soft)" transform="translate(0,4)">
    <!-- Book body -->
    <rect x="116" y="124" width="280" height="264" rx="28" fill="#111" opacity=".92"/>
    <!-- Pages (left/right) -->
    <path d="M140 148h120c18 0 32 14 32 32v180c0 4-3 7-7 7H147c-4 0-7-3-7-7V148z" fill="#fff" opacity=".98"/>
    <path d="M252 148h120v205c0 4-3 7-7 7H267c-4 0-7-3-7-7V180c0-18-3-32-8-32z" fill="#f9fafb" opacity=".96"/>
    <!-- Center gutter -->
    <rect x="250" y="148" width="4" height="208" fill="#e5e7eb"/>
    <!-- Lines (subtle writing guides) -->
    <g stroke="#e5e7eb" stroke-width="2" opacity=".7">
      <path d="M156 196h176"/>
      <path d="M156 224h176"/>
      <path d="M156 252h176"/>
      <path d="M156 280h176"/>
      <path d="M156 308h176"/>
      <path d="M156 336h176"/>
    </g>
    <!-- Bookmark ribbon -->
    <path d="M288 148h28c4 0 7 3 7 7v86l-21-10-21 10v-86c0-4 3-7 7-7z" fill="#ef4444"/>
    <!-- Elastic band (journal vibe) -->
    <rect x="324" y="124" width="8" height="264" fill="#0ea5e9" opacity=".9"/>
  </g>

  <!-- COMPASS STAR (bord / navigation) -->
  <g transform="translate(352,112)">
    <circle cx="0" cy="0" r="38" fill="#111" opacity=".92"/>
    <g fill="#fff">
      <path d="M0-26l6 14 20 6-20 6-6 14-6-14-20-6 20-6z"/>
      <circle cx="0" cy="0" r="4"/>
    </g>
  </g>

  <!-- Subtle gloss -->
  <path d="M64 140c0-44 36-80 80-80h224c44 0 80 36 80 80v0c-80 14-160 20-240 18-64-2-104-9-144-38z" fill="#fff" opacity=".06"/>

  <!-- Metadata -->
  <metadata>
    <![CDATA[
      Icone "journal de bord" — 512x512, fond dégradé + carnet + étoile de compas.
      Optimisée pour favicon/PWA (formes simples, fort contraste, safe-zone respectée).
      Couleurs clés: #fbbf24 → #ef4444 (fond), #111 (glyphes), pages #fff.
    ]]>
  </metadata>
</svg>